<?xml version="1.0" encoding="UTF-8" standalone="no"?>
<svg
   xmlns:osb="http://www.openswatchbook.org/uri/2009/osb"
   xmlns:dc="http://purl.org/dc/elements/1.1/"
   xmlns:cc="http://creativecommons.org/ns#"
   xmlns:rdf="http://www.w3.org/1999/02/22-rdf-syntax-ns#"
   xmlns:svg="http://www.w3.org/2000/svg"
   xmlns="http://www.w3.org/2000/svg"
   xmlns:xlink="http://www.w3.org/1999/xlink"
   xmlns:sodipodi="http://sodipodi.sourceforge.net/DTD/sodipodi-0.dtd"
   xmlns:inkscape="http://www.inkscape.org/namespaces/inkscape"
   width="210mm"
   height="297mm"
   viewBox="0 0 210 297"
   version="1.1"
   id="svg8"
   inkscape:version="1.0.1 (0767f8302a, 2020-10-17)"
   sodipodi:docname="logo.svg">
  <defs
     id="defs2">
    <linearGradient
       id="linearGradient3464"
       osb:paint="solid">
      <stop
         style="stop-color:#d7604f;stop-opacity:1;"
         offset="0"
         id="stop3462" />
    </linearGradient>
    <style
       id="style157">.cls-1{fill:#4bc190;}.cls-2{fill:#356cb6;}.cls-13,.cls-2{opacity:0.3;}.cls-3{fill:#fbc0aa;}.cls-4{fill:#f8dc25;}.cls-5{fill:#f2bc0f;}.cls-6{fill:#fff;}.cls-12,.cls-13,.cls-16,.cls-7{fill:none;stroke-linecap:round;stroke-linejoin:round;}.cls-12,.cls-7{stroke:#fbc0aa;}.cls-7{stroke-width:20px;}.cls-8{fill:#ffd8c9;}.cls-14,.cls-19,.cls-9{fill:#515570;}.cls-9{opacity:0.2;}.cls-10,.cls-17{fill:#f85565;}.cls-10{opacity:0.4;}.cls-11{fill:#7f3838;}.cls-12{stroke-width:4px;}.cls-13{stroke:#f85565;}.cls-13,.cls-16{stroke-width:2px;}.cls-14,.cls-20{opacity:0.1;}.cls-15{fill:#393c54;}.cls-16{stroke:#515570;}.cls-18{fill:#ff8475;}</style>
    <linearGradient
       inkscape:collect="always"
       xlink:href="#linearGradient3464"
       id="linearGradient3466"
       x1="36.519457"
       y1="104.88612"
       x2="175.48257"
       y2="104.88612"
       gradientUnits="userSpaceOnUse" />
  </defs>
  <sodipodi:namedview
     id="base"
     pagecolor="#ffffff"
     bordercolor="#666666"
     borderopacity="1.0"
     inkscape:pageopacity="0.0"
     inkscape:pageshadow="2"
     inkscape:zoom="0.98994949"
     inkscape:cx="263.18125"
     inkscape:cy="478.09266"
     inkscape:document-units="mm"
     inkscape:current-layer="layer2"
     inkscape:document-rotation="0"
     showgrid="false"
     inkscape:window-width="923"
     inkscape:window-height="1007"
     inkscape:window-x="57"
     inkscape:window-y="35"
     inkscape:window-maximized="0" />
  <metadata
     id="metadata5">
    <rdf:RDF>
      <cc:Work
         rdf:about="">
        <dc:format>image/svg+xml</dc:format>
        <dc:type
           rdf:resource="http://purl.org/dc/dcmitype/StillImage" />
        <dc:title></dc:title>
      </cc:Work>
    </rdf:RDF>
  </metadata>
  <g
     inkscape:groupmode="layer"
     id="layer2"
     inkscape:label="Layer 2"
     style="display:inline">
    <rect
       style="fill:url(#linearGradient3466);stroke:#000000;stroke-width:0.264583;fill-opacity:1"
       id="rect685"
       width="138.69853"
       height="108.11912"
       x="36.651749"
       y="50.826561"
       inkscape:export-xdpi="234.3526"
       inkscape:export-ydpi="234.3526" />
  </g>
  <g
     inkscape:label="Layer 1"
     inkscape:groupmode="layer"
     id="layer1"
     style="display:inline">
    <path
       d="m 116.00228,91.087288 v 0 c 0.46303,0 0.89533,0.137688 1.25741,0.37373 v -0.620697 c 0,-0.631621 0.25894,-1.206419 0.67808,-1.623857 0.41694,-0.415253 0.99407,-0.675332 1.63045,-0.675332 v 0 c 0.48936,0 0.9436,0.152987 1.31885,0.415252 v -0.500489 c 0,-0.631621 0.25894,-1.206419 0.67808,-1.623857 0.41694,-0.413067 0.99407,-0.670961 1.62826,-0.670961 v 0 c 0.63419,0 1.21132,0.257894 1.63045,0.675332 0.41694,0.415253 0.67808,0.99005 0.67808,1.623858 v 0.507045 c 0.36866,-0.251338 0.81413,-0.397768 1.29471,-0.397768 v 0 c 0.63418,0 1.21132,0.257894 1.63045,0.675332 0.41694,0.415252 0.67808,0.992235 0.67808,1.623857 v 10.921147 c 0.0285,0.18796 0.0439,0.38029 0.0439,0.57698 v 0.64256 l 0.0571,-0.0524 c 0.3972,-0.37155 0.78561,-0.75838 0.93044,-0.90482 0.9831,-0.9813 2.04301,-1.18893 2.88347,-0.92448 0.37963,0.1202 0.7088,0.33439 0.96774,0.61851 0.25675,0.28193 0.44547,0.63161 0.53983,1.02501 0.22164,0.92885 -0.079,2.09812 -1.23766,3.1297 l -0.0197,0.0197 v 0 l -0.004,0.004 -5.07351,5.10105 v 0.002 c -0.0109,0.0109 -0.0241,0.024 -0.0373,0.0349 -0.74171,0.7103 -1.46807,1.19549 -2.25806,1.50802 -0.80315,0.31909 -1.65021,0.45022 -2.62013,0.45022 h -3.28286 c -1.74676,4e-5 -3.32016,-0.71245 -4.45687,-1.85767 -1.1411,-1.15615 -1.84331,-2.74504 -1.84331,-4.49129 v -4.30988 c 0,-0.15081 0.009,-0.29942 0.0241,-0.44586 -0.0154,-0.0502 -0.0241,-0.1049 -0.022,-0.15954 v -8.370674 c 0,-0.631617 0.25894,-1.206419 0.67807,-1.623854 0.41694,-0.417435 0.99407,-0.675331 1.62826,-0.675331 z m 12.20538,13.333992 c -0.89752,-0.34314 -1.71385,-0.51142 -2.43361,-0.52235 -0.75269,-0.0109 -1.39565,0.14862 -1.90696,0.4546 -0.49594,0.29504 -0.87337,0.73871 -1.11257,1.30257 -0.18652,0.4393 -0.28747,0.95071 -0.29624,1.52552 l -1.04455,-0.0131 c 0.011,-0.71685 0.13825,-1.36159 0.37305,-1.91672 0.32477,-0.77149 0.84925,-1.37908 1.54268,-1.79214 0.67588,-0.40433 1.50537,-0.61414 2.45556,-0.60102 0.70879,0.0109 1.48343,0.14424 2.31072,0.41525 v -0.90919 c 0,-0.11146 -0.007,-0.22292 -0.0197,-0.3322 -0.022,-0.0481 -0.0351,-0.0984 -0.0417,-0.15299 -0.13825,-0.62725 -0.48936,-1.18019 -0.97652,-1.57796 -0.48716,-0.395579 -1.10818,-0.635995 -1.78187,-0.635995 h -0.26333 c -0.007,0 -0.0109,0 -0.0176,0 -0.007,0 -0.011,0 -0.0176,0 h -3.56593 c -0.0109,0 -0.0197,0 -0.0307,0 -0.0109,0 -0.0197,0 -0.0307,0 h -3.56593 c -0.0548,0 -0.10972,-0.0088 -0.16019,-0.02627 h -0.13167 c -0.67149,0 -1.28813,0.236038 -1.7709,0.627255 -0.23918,0.19452 -0.44546,0.424 -0.61224,0.68407 -0.2348,0.41526 -0.36647,0.89826 -0.36647,1.41186 v 4.3099 c 0,1.4643 0.58592,2.7953 1.54048,3.75476 0.9458,0.95289 2.25368,1.54299 3.71077,1.54299 h 3.28286 c 0.84705,0 1.5712,-0.10928 2.23611,-0.37373 0.65833,-0.26008 1.27496,-0.67752 1.91573,-1.29166 0.007,-0.007 0.0132,-0.0131 0.0197,-0.0197 v 0 l 0.007,-0.007 5.06692,-5.0945 c 0.0153,-0.0175 0.0329,-0.0372 0.0527,-0.0525 l 0.34892,0.39122 -0.34672,-0.38903 c 0.84046,-0.7409 1.07307,-1.52987 0.92824,-2.12872 -0.0527,-0.21855 -0.15361,-0.41088 -0.29406,-0.56387 -0.13824,-0.15299 -0.3116,-0.26663 -0.5091,-0.32783 -0.49813,-0.15736 -1.15865,0.002 -1.82575,0.66659 -0.15362,0.15299 -0.55958,0.55731 -0.95458,0.92886 -0.37305,0.3475 -0.75707,0.68189 -1.00943,0.82395 -0.0834,0.0546 -0.18214,0.0874 -0.28966,0.0874 -0.16898,0.002 -0.32039,-0.0765 -0.41476,-0.19888 z m -9.89684,-5.911895 h 2.517 v -7.666879 c 0,-0.34313 -0.14264,-0.657848 -0.37085,-0.885143 -0.22823,-0.227297 -0.54203,-0.369357 -0.88875,-0.369357 v 0 c -0.34452,0 -0.66052,0.14206 -0.88874,0.369357 -0.22822,0.227295 -0.37086,0.539828 -0.37086,0.885143 v 2.543967 5.122912 z m 3.62519,0 h 2.517 V 88.460267 c 0,-0.343131 -0.14264,-0.657849 -0.37086,-0.885145 -0.22822,-0.227296 -0.54203,-0.369356 -0.88874,-0.369356 v 0 c -0.34453,0 -0.66053,0.14206 -0.88874,0.369356 -0.22822,0.227296 -0.37086,0.539829 -0.37086,0.885145 v 10.049118 z m 3.60104,0.0088 c 0.96115,0.06336 1.83014,0.480816 2.47311,1.123369 0.0153,0.01528 0.0285,0.03056 0.0439,0.0437 v -8.81866 c 0,-0.343129 -0.14263,-0.657847 -0.37085,-0.885144 -0.22822,-0.227296 -0.54202,-0.367171 -0.88874,-0.367171 v 0 c -0.34452,0 -0.66052,0.139875 -0.88874,0.367171 -0.22822,0.227297 -0.37086,0.539829 -0.37086,0.885144 v 7.651577 z m -10.79217,1.178011 c 0.0197,-0.01966 0.0373,-0.04155 0.0571,-0.06121 0.6342,-0.644734 1.49221,-1.062177 2.45775,-1.119 v -5.12947 c 0,-0.343126 -0.14044,-0.657844 -0.36866,-0.885143 -0.22821,-0.22729 -0.54202,-0.369351 -0.88874,-0.369351 v 0 c -0.34672,0 -0.66051,0.142061 -0.88874,0.369351 -0.22822,0.227299 -0.36866,0.539828 -0.36866,0.885143 z"
       id="path421-3"
       style="stroke-width:0.218997"
       inkscape:export-xdpi="234.3526"
       inkscape:export-ydpi="234.3526" />
    <path
       d="m 155.02406,90.936988 v 0 c -0.46302,0 -0.89532,0.137689 -1.25741,0.37373 v -0.620697 c 0,-0.631621 -0.25893,-1.206419 -0.67807,-1.623857 -0.41694,-0.415253 -0.99407,-0.675332 -1.63045,-0.675332 v 0 c -0.48936,0 -0.9436,0.152988 -1.31885,0.415253 v -0.50049 c 0,-0.631621 -0.25895,-1.206418 -0.67808,-1.623857 -0.41694,-0.413067 -0.99407,-0.670961 -1.62826,-0.670961 v 0 c -0.63419,0 -1.21132,0.257894 -1.63045,0.675333 -0.41694,0.415252 -0.67808,0.99005 -0.67808,1.623857 v 0.507045 c -0.36867,-0.251337 -0.81413,-0.397768 -1.29471,-0.397768 v 0 c -0.63418,0 -1.21132,0.257894 -1.63045,0.675332 -0.41694,0.415253 -0.67808,0.992236 -0.67808,1.623857 v 10.921147 c -0.0285,0.18797 -0.0439,0.38029 -0.0439,0.57699 v 0.64255 l -0.0571,-0.0524 c -0.3972,-0.37154 -0.78561,-0.75838 -0.93044,-0.90482 -0.9831,-0.9813 -2.04301,-1.18893 -2.88347,-0.92448 -0.37964,0.12021 -0.7088,0.33439 -0.96775,0.61851 -0.25674,0.28193 -0.44546,0.63162 -0.53982,1.02501 -0.22164,0.92886 0.079,2.09812 1.23765,3.1297 l 0.0197,0.0197 v 0 l 0.004,0.004 5.07351,5.10105 v 0.002 c 0.0109,0.0109 0.0241,0.024 0.0373,0.0349 0.74171,0.7103 1.46807,1.19548 2.25806,1.50802 0.80315,0.31909 1.6502,0.45022 2.62013,0.45022 h 3.28286 c 1.74676,4e-5 3.32016,-0.71244 4.45686,-1.85767 1.14111,-1.15615 1.84332,-2.74503 1.84332,-4.49128 v -4.30989 c 0,-0.1508 -0.009,-0.29942 -0.0241,-0.44585 0.0153,-0.0502 0.0241,-0.10491 0.022,-0.15954 v -8.370684 c 0,-0.631617 -0.25894,-1.206419 -0.67807,-1.623854 -0.41694,-0.417435 -0.99407,-0.675331 -1.62826,-0.675331 z m -12.20537,13.333992 c 0.89752,-0.34313 1.71384,-0.51142 2.43361,-0.52235 0.75269,-0.0109 1.39565,0.14862 1.90695,0.4546 0.49595,0.29504 0.87338,0.73871 1.11258,1.30258 0.18652,0.4393 0.28746,0.95071 0.29624,1.52551 l 1.04455,-0.0131 c -0.011,-0.71686 -0.13825,-1.36159 -0.37305,-1.91673 -0.32478,-0.77149 -0.84925,-1.37907 -1.54268,-1.79214 -0.67589,-0.40432 -1.50537,-0.61414 -2.45556,-0.60102 -0.7088,0.0109 -1.48343,0.14424 -2.31073,0.41526 v -0.90919 c 0,-0.11147 0.007,-0.22293 0.0197,-0.33221 0.022,-0.0481 0.0351,-0.0983 0.0417,-0.15299 0.13825,-0.62724 0.48936,-1.18019 0.97652,-1.57795 0.48716,-0.395585 1.10818,-0.636002 1.78187,-0.636002 h 0.26333 c 0.007,0 0.011,0 0.0176,0 0.007,0 0.0109,0 0.0176,0 h 3.56594 c 0.0109,0 0.0197,0 0.0307,0 0.011,0 0.0197,0 0.0307,0 h 3.56593 c 0.0548,0 0.10972,-0.0088 0.16019,-0.02627 h 0.13166 c 0.6715,0 1.28814,0.236039 1.77091,0.627262 0.23918,0.19451 0.44546,0.42399 0.61224,0.68407 0.2348,0.41525 0.36647,0.89825 0.36647,1.41186 v 4.30989 c 0,1.46431 -0.58592,2.79531 -1.54048,3.75476 -0.9458,0.95289 -2.25368,1.54299 -3.71078,1.54299 h -3.28285 c -0.84705,0 -1.5712,-0.10928 -2.23612,-0.37373 -0.65832,-0.26008 -1.27496,-0.67752 -1.91572,-1.29165 -0.007,-0.007 -0.0132,-0.0131 -0.0197,-0.0197 v 0 l -0.007,-0.007 -5.06692,-5.0945 c -0.0153,-0.0175 -0.0329,-0.0372 -0.0527,-0.0525 l -0.34891,0.39121 0.34672,-0.38902 c -0.84046,-0.7409 -1.07307,-1.52988 -0.92825,-2.12872 0.0527,-0.21856 0.15362,-0.41089 0.29406,-0.56388 0.13825,-0.15298 0.3116,-0.26663 0.50911,-0.32782 0.49813,-0.15736 1.15865,0.002 1.82575,0.66659 0.15361,0.15299 0.55958,0.55731 0.95458,0.92886 0.37305,0.34749 0.75707,0.68188 1.00943,0.82395 0.0834,0.0546 0.18214,0.0874 0.28966,0.0874 0.16897,0.002 0.32039,-0.0765 0.41476,-0.19888 z m 9.89684,-5.911892 h -2.517 v -7.666881 c 0,-0.34313 0.14264,-0.657848 0.37085,-0.885144 0.22822,-0.227297 0.54203,-0.369357 0.88875,-0.369357 v 0 c 0.34452,0 0.66051,0.14206 0.88874,0.369357 0.22822,0.227296 0.37086,0.539829 0.37086,0.885144 v 2.543966 5.122915 z m -3.62519,0 h -2.517 V 88.309967 c 0,-0.34313 0.14264,-0.657848 0.37086,-0.885145 0.22822,-0.227296 0.54202,-0.369356 0.88874,-0.369356 v 0 c 0.34453,0 0.66053,0.14206 0.88874,0.369356 0.22822,0.227297 0.37086,0.539829 0.37086,0.885145 v 10.049121 z m -3.60104,0.0088 c -0.96115,0.06336 -1.83014,0.480817 -2.47311,1.12337 -0.0153,0.01528 -0.0285,0.03056 -0.0439,0.0437 v -8.818663 c 0,-0.34313 0.14263,-0.657848 0.37086,-0.885144 0.22822,-0.227297 0.54202,-0.367171 0.88874,-0.367171 v 0 c 0.34452,0 0.66052,0.139874 0.88874,0.367171 0.22822,0.227296 0.37086,0.539829 0.37086,0.885144 v 7.65158 z m 10.79217,1.178012 c -0.0197,-0.01966 -0.0373,-0.04155 -0.0571,-0.06121 -0.63419,-0.644734 -1.49221,-1.062177 -2.45775,-1.119 v -5.129474 c 0,-0.343125 0.14045,-0.657843 0.36867,-0.885142 0.22821,-0.227291 0.54202,-0.369352 0.88874,-0.369352 v 0 c 0.34671,0 0.66051,0.142061 0.88874,0.369352 0.22822,0.227299 0.36866,0.539828 0.36866,0.885142 z"
       id="path421-3-6"
       style="stroke-width:0.218997"
       inkscape:export-xdpi="234.3526"
       inkscape:export-ydpi="234.3526" />
    <path
       d="m 99.088176,96.610505 0.0346,-0.154004 0.20619,-0.941125 h 2.510404 l -1.44484,7.049884 c -0.0256,0.12756 -0.0496,0.24112 -0.0677,0.34379 v 0 c -0.0452,0.25511 -0.0663,0.434 -0.0663,0.53822 0,0.15089 0.0361,0.27223 0.10685,0.35623 0.0752,0.084 0.16254,0.12756 0.26338,0.12756 0.34014,0 0.78563,-0.23179 1.32744,-0.69379 0.53881,-0.46045 1.01289,-1.09046 1.41625,-1.88536 0.40184,-0.7949 0.60352,-1.664467 0.60352,-2.610262 0,-0.785564 -0.14299,-1.526022 -0.43195,-2.221368 -0.28896,-0.695339 -0.70736,-1.295797 -1.25068,-1.809136 -0.54483,-0.510231 -1.22059,-0.910015 -2.02278,-1.197797 -0.802184,-0.287782 -1.711224,-0.432451 -2.724114,-0.432451 -1.03547,0 -1.98364,0.141558 -2.84452,0.420006 -0.8639,0.278449 -1.61942,0.678233 -2.27261,1.197795 -0.65318,0.519565 -1.198,1.16513 -1.63597,1.932033 -0.38679,0.667342 -0.68178,1.409352 -0.88345,2.221368 -0.20469,0.812009 -0.30553,1.641132 -0.30553,2.485822 0,1.12779 0.21823,2.15758 0.65319,3.09092 0.43194,0.93646 1.06406,1.71892 1.89334,2.34893 0.82475,0.63468 1.8241,1.08423 2.99953,1.34868 1.17242,0.26446 2.49686,0.3189 3.9748,0.16023 1.172424,-0.14467 2.165754,-0.42 2.979984,-0.82601 0.81422,-0.406 1.50654,-0.97691 2.07093,-1.71114 h 2.02578 c -0.3281,0.70157 -0.76005,1.32847 -1.28831,1.87914 -0.52827,0.55068 -1.14985,1.01268 -1.86023,1.39224 -0.70737,0.37646 -1.50353,0.66113 -2.38699,0.85869 -0.878944,0.19755 -1.840664,0.29556 -2.883654,0.29556 -1.55771,0 -2.96342,-0.21157 -4.21109,-0.63468 -1.25068,-0.42312 -2.3012,-1.03291 -3.15606,-1.82936 -0.85035,-0.7949 -1.49751,-1.74536 -1.93548,-2.85294 -0.43646,-1.0998 -0.65319,-2.31781 -0.65319,-3.65716 0,-1.395355 0.22425,-2.702042 0.67577,-3.913836 0.45151,-1.210242 1.09717,-2.264922 1.9445,-3.160939 0.84734,-0.894458 1.8798,-1.592913 3.10038,-2.095365 1.22058,-0.507119 2.56759,-0.759123 4.03951,-0.759123 1.20404,0 2.30873,0.182003 3.314094,0.546008 1.00387,0.36245 1.86626,0.886681 2.58115,1.566469 0.7179,0.681344 1.26272,1.490245 1.6435,2.423593 0.37626,0.933347 0.56439,1.963139 0.56439,3.090935 0,0.878905 -0.15201,1.737588 -0.45754,2.580708 -0.30251,0.84156 -0.74048,1.60068 -1.30788,2.2727 -0.56438,0.67046 -1.23412,1.2009 -2.00019,1.59447 -0.76907,0.38889 -1.59685,0.58334 -2.483314,0.58334 -0.51321,0 -0.91205,-0.0902 -1.19801,-0.27222 -0.28596,-0.17734 -0.4771,-0.46668 -0.57191,-0.85869 -0.14449,0.14778 -0.29499,0.28 -0.45001,0.39979 -0.12491,0.0964 -0.25435,0.182 -0.38829,0.25977 -0.33112,0.19289 -0.68631,0.32979 -1.06407,0.40757 -0.7179,0.14778 -1.41172,0.0778 -2.08448,-0.20844 -0.67275,-0.28624 -1.21456,-0.76535 -1.62995,-1.44047 -0.41539,-0.67513 -0.62308,-1.5058 -0.62308,-2.49671 0,-1.02979 0.21371,-2.039358 0.64265,-3.036485 0.42742,-0.995575 1.03546,-1.812252 1.8241,-2.448481 0.78864,-0.634676 1.68113,-0.953573 2.67896,-0.953573 1.10922,0 1.93247,0.418451 2.46526,1.256907 z m -5.20141,5.091415 c 0,0.78868 0.15954,1.38913 0.47408,1.80914 0.31757,0.42 0.73447,0.63156 1.24618,0.63156 0.59749,0 1.11974,-0.2489 1.57426,-0.73891 0.13395,-0.14466 0.25737,-0.30177 0.37175,-0.46822 0.0768,-0.11201 0.1505,-0.23023 0.21823,-0.35312 0.17609,-0.31422 0.32358,-0.66111 0.44248,-1.04223 0.23027,-0.74201 0.34767,-1.45914 0.35068,-2.152926 v -0.02487 c 0,-0.153999 -0.008,-0.301782 -0.0225,-0.441781 -0.0196,-0.174229 -0.0512,-0.339122 -0.0948,-0.494677 -0.0813,-0.278446 -0.19716,-0.522675 -0.35369,-0.73579 -0.15653,-0.208447 -0.34014,-0.365561 -0.56138,-0.476004 -0.21823,-0.10734 -0.46807,-0.160225 -0.7465,-0.160225 -0.55535,0 -1.05804,0.224004 -1.50654,0.675121 -0.44398,0.441781 -0.78262,1.018904 -1.02493,1.728248 v 0 l -0.008,0.01869 c -0.2393,0.718674 -0.3597,1.460694 -0.3597,2.226034 z"
       id="path544"
       style="stroke-width:0.15301"
       inkscape:export-xdpi="234.3526"
       inkscape:export-ydpi="234.3526" />
    <path
       d="m 68.322905,85.794325 v 0 0.0042 c 3.549631,0 6.762498,1.513894 9.086388,3.962124 2.32389,2.448229 3.760894,5.833001 3.760894,9.57256 h 0.0021 v 0.002 h -0.0021 c 0,3.739551 -1.437004,7.124331 -3.760894,9.572561 -2.32389,2.44823 -5.536757,3.96213 -9.086388,3.96213 v 0.004 h -0.0021 v -0.004 c -3.549632,0 -6.762498,-1.5139 -9.086387,-3.96213 -2.321835,-2.45039 -3.75884,-5.83517 -3.75884,-9.574731 h -0.0042 v -0.002 h 0.0042 c 0,-3.737389 1.437005,-7.122161 3.760894,-9.57039 2.32389,-2.44823 5.536757,-3.962124 9.084297,-3.962124 z m 4.467892,9.71138 c 0.583587,0 1.056314,0.498021 1.056314,1.112835 0,0.614814 -0.472727,1.112836 -1.056314,1.112836 -0.583587,0 -1.056313,-0.498022 -1.056313,-1.112836 0,-0.614814 0.472726,-1.112835 1.056313,-1.112835 z m -9.025729,9.812765 c -0.351407,0 -0.633787,-0.29969 -0.633787,-0.6677 0,-0.37021 0.284472,-0.6677 0.633787,-0.6677 h 9.113581 c 0.351407,0 0.633788,0.29969 0.633788,0.6677 0,0.3702 -0.284473,0.6677 -0.633788,0.6677 z m 9.055013,-13.206349 c 0.311665,-0.209341 0.725824,-0.112387 0.922444,0.215955 0.198712,0.328341 0.106678,0.764663 -0.204988,0.971805 l -3.00997,2.025133 c -0.311665,0.209342 -0.725824,0.112379 -0.922444,-0.215962 -0.198712,-0.328333 -0.106678,-0.764655 0.204987,-0.971798 z m -10.197085,1.18776 c -0.311666,-0.209349 -0.403701,-0.645663 -0.204988,-0.971805 0.198712,-0.328342 0.612871,-0.425296 0.922443,-0.215955 l 3.009971,2.025133 c 0.311665,0.20935 0.4037,0.645664 0.204988,0.971798 -0.198713,0.328341 -0.612871,0.425304 -0.922445,0.215962 z m 0.874333,2.205824 c 0.583588,0 1.056314,0.498021 1.056314,1.112835 0,0.614814 -0.472726,1.112836 -1.056314,1.112836 -0.583586,0 -1.056313,-0.498022 -1.056313,-1.112836 0,-0.614814 0.472727,-1.112835 1.056313,-1.112835 z m 4.825576,-7.985946 v 0.0042 h -0.0021 l 0.0021,-0.0042 c -3.09364,0 -5.896531,1.324384 -7.927581,3.464102 -2.03105,2.13752 -3.286076,5.090384 -3.286076,8.349548 h 0.0042 v 0.002 h -0.0042 c 0,3.259161 1.257118,6.212031 3.286076,8.349551 2.03105,2.13972 4.833941,3.46189 7.925489,3.4641 v -0.004 h 0.0021 v 0.004 c 3.093639,0 5.896531,-1.32438 7.925489,-3.4641 2.031051,-2.13972 3.286077,-5.09259 3.286077,-8.349551 h -0.0021 v -0.002 h 0.0021 c 0,-3.256957 -1.257118,-6.209821 -3.286077,-8.349548 -2.028922,-2.139718 -4.831814,-3.464102 -7.925452,-3.464102 z"
       id="path615"
       style="stroke-width:0.214694"
       inkscape:export-xdpi="234.3526"
       inkscape:export-ydpi="234.3526" />
    <text
       xml:space="preserve"
       style="font-style:normal;font-variant:normal;font-weight:normal;font-stretch:normal;font-size:12.7px;line-height:1.25;font-family:sans-serif;-inkscape-font-specification:'sans-serif, Normal';font-variant-ligatures:normal;font-variant-caps:normal;font-variant-numeric:normal;font-variant-east-asian:normal;fill:#000000;fill-opacity:1;stroke:none;stroke-width:0.264583"
       x="65.863785"
       y="130.11842"
       id="text634"
       inkscape:export-xdpi="234.3526"
       inkscape:export-ydpi="234.3526"><tspan
         sodipodi:role="line"
         id="tspan632"
         x="65.863785"
         y="130.11842"
         style="font-style:normal;font-variant:normal;font-weight:normal;font-stretch:normal;font-size:12.7px;font-family:sans-serif;-inkscape-font-specification:'sans-serif, Normal';font-variant-ligatures:normal;font-variant-caps:normal;font-variant-numeric:normal;font-variant-east-asian:normal;stroke-width:0.264583">Maus Ao Alto</tspan></text>
  </g>
</svg>
