<?xml version="1.0" encoding="UTF-8" standalone="no"?>
<svg
   xmlns:osb="http://www.openswatchbook.org/uri/2009/osb"
   xmlns:dc="http://purl.org/dc/elements/1.1/"
   xmlns:cc="http://creativecommons.org/ns#"
   xmlns:rdf="http://www.w3.org/1999/02/22-rdf-syntax-ns#"
   xmlns:svg="http://www.w3.org/2000/svg"
   xmlns="http://www.w3.org/2000/svg"
   xmlns:xlink="http://www.w3.org/1999/xlink"
   xmlns:sodipodi="http://sodipodi.sourceforge.net/DTD/sodipodi-0.dtd"
   xmlns:inkscape="http://www.inkscape.org/namespaces/inkscape"
   width="210mm"
   height="297mm"
   viewBox="0 0 210 297"
   version="1.1"
   id="svg8"
   inkscape:version="1.0.1 (0767f8302a, 2020-10-17)"
   sodipodi:docname="logo.svg">
  <defs
     id="defs2">
    <linearGradient
       id="linearGradient3464"
       osb:paint="solid">
      <stop
         style="stop-color:#d7604f;stop-opacity:1;"
         offset="0"
         id="stop3462" />
    </linearGradient>
    <style
       id="style157">.cls-1{fill:#4bc190;}.cls-2{fill:#356cb6;}.cls-13,.cls-2{opacity:0.3;}.cls-3{fill:#fbc0aa;}.cls-4{fill:#f8dc25;}.cls-5{fill:#f2bc0f;}.cls-6{fill:#fff;}.cls-12,.cls-13,.cls-16,.cls-7{fill:none;stroke-linecap:round;stroke-linejoin:round;}.cls-12,.cls-7{stroke:#fbc0aa;}.cls-7{stroke-width:20px;}.cls-8{fill:#ffd8c9;}.cls-14,.cls-19,.cls-9{fill:#515570;}.cls-9{opacity:0.2;}.cls-10,.cls-17{fill:#f85565;}.cls-10{opacity:0.4;}.cls-11{fill:#7f3838;}.cls-12{stroke-width:4px;}.cls-13{stroke:#f85565;}.cls-13,.cls-16{stroke-width:2px;}.cls-14,.cls-20{opacity:0.1;}.cls-15{fill:#393c54;}.cls-16{stroke:#515570;}.cls-18{fill:#ff8475;}</style>
    <linearGradient
       inkscape:collect="always"
       xlink:href="#linearGradient3464"
       id="linearGradient3466"
       x1="36.519457"
       y1="104.88612"
       x2="175.48257"
       y2="104.88612"
       gradientUnits="userSpaceOnUse"
       gradientTransform="matrix(2.7600776,0,0,3.5407125,-186.57001,-266.48548)" />
  </defs>
  <sodipodi:namedview
     id="base"
     pagecolor="#ffffff"
     bordercolor="#666666"
     borderopacity="1.0"
     inkscape:pageopacity="0.0"
     inkscape:pageshadow="2"
     inkscape:zoom="0.49497475"
     inkscape:cx="249.28108"
     inkscape:cy="479.8387"
     inkscape:document-units="mm"
     inkscape:current-layer="layer2"
     inkscape:document-rotation="0"
     showgrid="false"
     inkscape:window-width="1871"
     inkscape:window-height="1023"
     inkscape:window-x="49"
     inkscape:window-y="27"
     inkscape:window-maximized="1" />
  <metadata
     id="metadata5">
    <rdf:RDF>
      <cc:Work
         rdf:about="">
        <dc:format>image/svg+xml</dc:format>
        <dc:type
           rdf:resource="http://purl.org/dc/dcmitype/StillImage" />
        <dc:title />
      </cc:Work>
    </rdf:RDF>
  </metadata>
  <g
     inkscape:groupmode="layer"
     id="layer2"
     inkscape:label="Layer 2"
     style="display:inline">
    <rect
       style="fill:url(#linearGradient3466);fill-opacity:1;stroke:#000000;stroke-width:0.827119"
       id="rect685"
       width="382.81873"
       height="382.81873"
       x="-85.40834"
       y="-86.523239"
       inkscape:export-xdpi="96"
       inkscape:export-ydpi="96" />
  </g>
  <g
     inkscape:label="Layer 1"
     inkscape:groupmode="layer"
     id="layer1"
     style="display:inline">
    <path
       d="m 239.6705,43.894127 v 0 c -1.17539,0 -2.2728,0.329318 -3.19198,0.893869 v -1.484553 c 0,-1.510682 -0.6573,-2.885457 -1.72131,-3.883867 -1.05841,-0.993182 -2.52348,-1.615228 -4.13895,-1.615228 v 0 c -1.24227,0 -2.39537,0.36591 -3.34795,0.993183 v -1.19705 c 0,-1.510681 -0.65736,-2.885454 -1.72134,-3.883866 -1.05841,-0.987954 -2.52347,-1.604773 -4.13339,-1.604773 v 0 c -1.60991,0 -3.07498,0.616819 -4.13895,1.61523 -1.05842,0.993181 -1.72133,2.367957 -1.72133,3.883867 v 1.212727 c -0.93589,-0.601136 -2.0667,-0.951363 -3.28667,-0.951363 v 0 c -1.60989,0 -3.07498,0.616819 -4.13896,1.615228 -1.05841,0.993183 -1.72134,2.373185 -1.72134,3.883866 v 26.120697 c -0.0724,0.449578 -0.11138,0.909559 -0.11138,1.380018 v 1.536822 l -0.14496,-0.125326 c -1.00831,-0.888632 -1.99431,-1.813858 -2.36196,-2.164107 -2.49564,-2.347029 -5.18625,-2.843628 -7.31979,-2.211129 -0.96373,0.287514 -1.79931,0.79978 -2.45666,1.479325 -0.65175,0.674307 -1.13082,1.510679 -1.37036,2.451572 -0.56265,2.221603 0.20054,5.018186 3.14182,7.485471 l 0.05,0.04712 v 0 l 0.009,0.0096 12.87928,12.200471 v 0.005 c 0.0276,0.0261 0.0611,0.0574 0.0947,0.0835 1.88285,1.69887 3.72675,2.8593 5.73217,3.60682 2.03882,0.76318 4.18908,1.07681 6.65129,1.07681 h 8.33366 c 4.43421,1e-4 8.42834,-1.70398 11.3139,-4.44309 2.89674,-2.765223 4.67933,-6.565433 4.67933,-10.742043 V 70.860445 c 0,-0.360675 -0.0229,-0.716138 -0.0611,-1.066362 0.0389,-0.120074 0.0611,-0.25092 0.0558,-0.381582 V 49.39188 c 0,-1.510674 -0.65733,-2.885457 -1.72131,-3.88386 -1.05842,-0.998402 -2.52349,-1.615225 -4.1334,-1.615225 z m -30.98378,31.891628 c 2.27839,-0.820682 4.35066,-1.223191 6.17782,-1.249333 1.91072,-0.02607 3.54291,0.355463 4.84086,1.087291 1.25899,0.705663 2.21711,1.766813 2.82433,3.115452 0.47348,1.050696 0.72972,2.273864 0.75201,3.648644 l 2.65162,-0.03133 c -0.0279,-1.714553 -0.35094,-3.256588 -0.94699,-4.584347 -0.82447,-1.845213 -2.15585,-3.298396 -3.91616,-4.286358 -1.71577,-0.967033 -3.82142,-1.468871 -6.23352,-1.437491 -1.79931,0.02607 -3.76574,0.344987 -5.86587,0.993199 v -2.174557 c 0,-0.266609 0.0178,-0.533195 0.05,-0.794565 0.0558,-0.115044 0.0892,-0.23511 0.10584,-0.365915 0.35095,-1.500203 1.24225,-2.822724 2.47893,-3.774068 1.23667,-0.946142 2.81315,-1.52116 4.52333,-1.52116 h 0.66848 c 0.0178,0 0.0279,0 0.0447,0 0.0177,0 0.0276,0 0.0447,0 h 9.05227 c 0.0276,0 0.05,0 0.0779,0 0.0279,0 0.05,0 0.0779,0 h 9.05224 c 0.13912,0 0.27853,-0.02105 0.40665,-0.06284 h 0.33422 c 1.70463,0 3.27,0.564548 4.49553,1.500256 0.60717,0.465221 1.13082,1.014081 1.55419,1.636128 0.59605,0.993176 0.9303,2.148393 0.9303,3.376821 V 81.16978 c 0,3.502268 -1.48738,6.685688 -3.91056,8.980461 -2.40095,2.27908 -5.72105,3.69046 -9.41996,3.69046 h -8.33363 c -2.15027,0 -3.98855,-0.26138 -5.67647,-0.89388 -1.67117,-0.62204 -3.23654,-1.62046 -4.86313,-3.0893 -0.0178,-0.0168 -0.0335,-0.0313 -0.05,-0.0471 v 0 l -0.0178,-0.0167 -12.86255,-12.184795 c -0.0389,-0.04185 -0.0835,-0.08898 -0.13375,-0.125563 l -0.88572,0.935678 0.88016,-0.930441 c -2.13353,-1.772049 -2.72402,-3.659096 -2.35639,-5.091374 0.13375,-0.522742 0.38997,-0.982748 0.74649,-1.348662 0.35094,-0.36589 0.79099,-0.637713 1.29239,-0.784065 1.26452,-0.376366 2.94128,0.0047 4.63472,1.594319 0.38995,0.365916 1.42052,1.332949 2.42324,2.221605 0.94701,0.831111 1.92185,1.630889 2.56247,1.970686 0.21172,0.130592 0.46237,0.209039 0.73532,0.209039 0.42894,0.0047 0.81333,-0.182969 1.05288,-0.475672 z m 25.1235,-14.139791 h -6.38951 V 43.30867 c 0,-0.820681 0.3621,-1.57341 0.94143,-2.117046 0.57934,-0.543638 1.37596,-0.883411 2.25612,-0.883411 v 0 c 0.87457,0 1.67673,0.339773 2.2561,0.883411 0.57935,0.543636 0.94144,1.291138 0.94144,2.117046 v 6.084542 12.252752 z m -9.20268,0 h -6.3895 V 37.610939 c 0,-0.820683 0.3621,-1.573411 0.94144,-2.11705 0.57935,-0.543635 1.37594,-0.883408 2.2561,-0.883408 v 0 c 0.87461,0 1.67678,0.339773 2.2561,0.883408 0.57934,0.543639 0.94144,1.291138 0.94144,2.11705 v 24.035025 z m -9.14137,0.02105 c -2.43992,0.151541 -4.64588,1.149996 -6.27809,2.686825 -0.0389,0.03655 -0.0724,0.07309 -0.11139,0.104524 V 43.366292 c 0,-0.820681 0.36207,-1.57341 0.94144,-2.117046 0.57935,-0.543638 1.37594,-0.878182 2.2561,-0.878182 v 0 c 0.87458,0 1.67675,0.334544 2.2561,0.878182 0.57934,0.543636 0.94144,1.291138 0.94144,2.117046 V 61.66699 Z m 27.39632,2.817515 c -0.05,-0.04702 -0.0947,-0.09938 -0.14496,-0.1464 -1.60992,-1.542044 -3.78803,-2.540466 -6.23909,-2.676372 v -12.26844 c 0,-0.82067 0.35654,-1.573399 0.93589,-2.117041 0.57931,-0.543625 1.37593,-0.883399 2.25609,-0.883399 v 0 c 0.88014,0 1.67673,0.339774 2.2561,0.883399 0.57935,0.543642 0.93586,1.291135 0.93586,2.117041 z"
       id="path421-3-6"
       style="stroke-width:0.53962"
       inkscape:export-xdpi="96"
       inkscape:export-ydpi="96" />
    <path
       d="m 96.908767,55.476913 0.0934,-0.423216 0.55718,-2.586272 h 6.783933 l -3.90442,19.373551 c -0.0691,0.350539 -0.13406,0.662609 -0.18296,0.944754 v 0 c -0.12214,0.701067 -0.17917,1.192668 -0.17917,1.47907 0,0.414657 0.0976,0.748102 0.28875,0.978945 0.20322,0.230833 0.43924,0.350538 0.71174,0.350538 0.91917,0 2.12302,-0.636977 3.58717,-1.906579 1.45605,-1.265348 2.73715,-2.996653 3.82717,-5.181094 1.0859,-2.18444 1.63091,-4.574071 1.63091,-7.173178 0,-2.158779 -0.38643,-4.193605 -1.16728,-6.104461 -0.78086,-1.910837 -1.91152,-3.560943 -3.37974,-4.971628 -1.47232,-1.40215 -3.29843,-2.500783 -5.4662,-3.291628 -2.167753,-0.790843 -4.624282,-1.188405 -7.361432,-1.188405 -2.79817,0 -5.36043,0.389013 -7.686804,1.154205 -2.334535,0.765197 -4.376197,1.863831 -6.141322,3.291617 -1.765102,1.427804 -3.237379,3.201863 -4.420916,5.309361 -1.045231,1.8339 -1.842389,3.872991 -2.387367,6.104469 -0.553137,2.231449 -0.825639,4.509934 -0.825639,6.8312 0,3.09924 0.589727,5.929178 1.765129,8.494054 1.167241,2.573456 2.875431,4.723704 5.116418,6.45502 2.228732,1.744143 4.929303,2.979531 8.105681,3.706258 3.16825,0.726763 6.74732,0.876362 10.741189,0.440324 3.168273,-0.397559 5.852563,-1.154186 8.052883,-2.269928 2.20028,-1.115714 4.07115,-2.684611 5.59632,-4.702328 h 5.47431 c -0.88664,1.927957 -2.05392,3.650723 -3.48144,5.163999 -1.42755,1.513317 -3.10727,2.782917 -5.02694,3.82598 -1.91154,1.03453 -4.06303,1.81683 -6.45041,2.35972 -2.375203,0.54289 -4.974063,0.81223 -7.792552,0.81223 -4.20945,0 -8.008118,-0.58141 -11.379724,-1.74414 -3.379734,-1.16277 -6.21858,-2.838514 -8.528686,-5.027213 -2.29792,-2.184437 -4.046753,-4.79636 -5.23029,-7.840069 -1.179454,-3.022324 -1.765129,-6.369497 -1.765129,-10.050116 0,-3.834527 0.605996,-7.425386 1.826149,-10.755476 1.220123,-3.325835 2.964903,-6.224159 5.254662,-8.686476 2.289784,-2.458031 5.079826,-4.377432 8.37822,-5.758203 3.298403,-1.393598 6.938458,-2.086121 10.916058,-2.086121 3.2537,0 6.238929,0.500157 8.955732,1.500466 2.7128,0.996038 5.04324,2.436658 6.97511,4.304762 1.94,1.87238 3.41227,4.095296 4.44126,6.660192 1.01678,2.564906 1.52518,5.394835 1.52518,8.494103 0,2.415281 -0.41078,4.775006 -1.23644,7.091948 -0.81747,2.312668 -2.00101,4.398778 -3.5343,6.245536 -1.52516,1.84247 -3.335,3.300153 -5.40517,4.381705 -2.07827,1.068696 -4.31519,1.60306 -6.710713,1.60306 -1.38685,0 -2.464649,-0.247876 -3.237409,-0.748075 -0.77275,-0.487346 -1.28927,-1.282468 -1.54548,-2.359744 -0.39046,0.406117 -0.79715,0.76946 -1.21606,1.098652 -0.33756,0.264917 -0.68735,0.500151 -1.04931,0.713864 -0.89478,0.530078 -1.85462,0.906287 -2.87543,1.120027 -1.939995,0.406117 -3.814928,0.2138 -5.632945,-0.572799 -1.81793,-0.786612 -3.282073,-2.103232 -4.404589,-3.958508 -1.122519,-1.855308 -1.683762,-4.138039 -1.683762,-6.861127 0,-2.829929 0.577513,-5.604292 1.736643,-8.34446 1.155028,-2.735914 2.798147,-4.980188 4.929309,-6.728596 2.131157,-1.744131 4.542954,-2.620481 7.239404,-2.620481 2.99747,0 5.22215,1.149935 6.661919,3.454072 z M 82.852893,69.468455 c 0,2.16735 0.431129,3.817427 1.281127,4.971637 0.858166,1.154191 1.984761,1.735572 3.367558,1.735572 1.61462,0 3.02591,-0.683995 4.25416,-2.030571 0.36198,-0.397537 0.6955,-0.829284 1.00459,-1.286704 0.20755,-0.307806 0.4067,-0.632684 0.58973,-0.970395 0.47585,-0.863496 0.87442,-1.816772 1.19572,-2.864113 0.62225,-2.039092 0.93951,-4.00982 0.94764,-5.91639 v -0.0683 c 0,-0.423198 -0.0217,-0.829314 -0.0608,-1.214044 -0.0529,-0.478786 -0.13835,-0.931929 -0.25618,-1.359402 -0.21969,-0.765185 -0.53279,-1.436346 -0.95577,-2.022001 -0.423,-0.572822 -0.91917,-1.004589 -1.51702,-1.30809 -0.58974,-0.294979 -1.26488,-0.440308 -2.0173,-0.440308 -1.50074,0 -2.85916,0.615582 -4.07115,1.855278 -1.199772,1.214044 -2.114886,2.800013 -2.769687,4.749336 v 0 l -0.02165,0.05141 c -0.646662,1.974953 -0.972026,4.014075 -0.972026,6.117285 z"
       id="path544"
       style="stroke-width:0.416968"
       inkscape:export-xdpi="96"
       inkscape:export-ydpi="96" />
    <path
       d="m 6.8075966,28.309142 v 0 0.01137 c 9.9190544,0 18.8970584,4.073608 25.3909144,10.661339 6.493854,6.587729 10.509405,15.69552 10.509405,25.757976 h 0.0059 v 0.0053 h -0.0059 c 0,10.062436 -4.015551,19.170249 -10.509405,25.757982 -6.493856,6.58773 -15.47186,10.661351 -25.3909144,10.661351 v 0.0108 h -0.0059 v -0.0108 c -9.9190558,0 -18.8970556,-4.073621 -25.3909066,-10.661351 -6.488084,-6.593532 -10.503636,-15.701345 -10.503636,-25.763807 h -0.01174 v -0.0053 h 0.01174 c 0,-10.056618 4.015552,-19.164408 10.509407,-25.752138 6.493853,-6.587749 15.4718567,-10.661356 25.3850666,-10.661356 z M 19.292631,54.440658 c 1.630769,0 2.951752,1.340082 2.951752,2.994432 0,1.65435 -1.320983,2.994434 -2.951752,2.994434 -1.630771,0 -2.951751,-1.340084 -2.951751,-2.994434 0,-1.65435 1.32098,-2.994432 2.951751,-2.994432 z M -5.9287766,80.844982 c -0.9819696,0 -1.7710488,-0.806411 -1.7710488,-1.796656 0,-0.996166 0.7949257,-1.796656 1.7710488,-1.796656 H 19.538124 c 0.981968,0 1.77105,0.80641 1.77105,1.796656 0,0.996139 -0.794929,1.796656 -1.77105,1.796656 z M 19.374461,45.309154 c 0.870914,-0.563297 2.028236,-0.302412 2.577669,0.581095 0.555278,0.883506 0.2981,2.057566 -0.572817,2.614946 l -8.41103,5.449256 c -0.870914,0.563301 -2.028236,0.302392 -2.577669,-0.581112 -0.5552784,-0.883483 -0.2981,-2.057545 0.572814,-2.614929 z m -28.4946334,3.196041 c -0.8709154,-0.563318 -1.1280986,-1.737357 -0.5728159,-2.614946 0.5552794,-0.883507 1.7126,-1.144392 2.577666,-0.581095 l 8.4110329,5.449256 c 0.870912,0.563323 1.128095,1.737363 0.572816,2.614929 -0.555282,0.883504 -1.7126,1.144413 -2.5776715,0.581112 z m 2.4432275,5.935463 c 1.6307724,0 2.9517538,1.340082 2.9517538,2.994432 0,1.65435 -1.3209814,2.994434 -2.9517538,2.994434 -1.6307666,0 -2.9517509,-1.340084 -2.9517509,-2.994434 0,-1.65435 1.3209843,-2.994432 2.9517509,-2.994432 z M 6.8075966,32.951964 v 0.01137 h -0.0059 l 0.0059,-0.01137 c -8.6448369,0 -16.4772077,3.56367 -22.1527536,9.321253 -5.675545,5.751668 -9.182579,13.697276 -9.182579,22.46708 h 0.0118 v 0.0053 h -0.0118 c 0,8.769795 3.512879,16.715419 9.182579,22.467082 5.6755459,5.75759 13.5079167,9.31531 22.1469086,9.32125 v -0.0108 h 0.0059 v 0.0108 c 8.6448344,0 16.4772084,-3.56366 22.1469084,-9.32125 5.675549,-5.757583 9.182581,-13.703207 9.182581,-22.467082 h -0.0059 v -0.0053 h 0.0059 c 0,-8.763865 -3.512879,-16.709472 -9.182581,-22.46708 C 23.284961,36.515634 15.452587,32.951964 6.8077546,32.951964 Z"
       id="path615"
       style="stroke-width:0.588715"
       inkscape:export-xdpi="96"
       inkscape:export-ydpi="96" />
    <text
       xml:space="preserve"
       style="font-style:normal;font-variant:normal;font-weight:normal;font-stretch:normal;font-size:52.6053px;line-height:1.25;font-family:sans-serif;-inkscape-font-specification:'sans-serif, Normal';font-variant-ligatures:normal;font-variant-caps:normal;font-variant-numeric:normal;font-variant-east-asian:normal;fill:#000000;fill-opacity:1;stroke:none;stroke-width:1.09594"
       x="-46.451004"
       y="144.42497"
       id="text634"
       inkscape:export-xdpi="96"
       inkscape:export-ydpi="96"
       transform="scale(0.86065927,1.1619)"><tspan
         sodipodi:role="line"
         id="tspan632"
         x="-46.451004"
         y="144.42497"
         style="font-style:normal;font-variant:normal;font-weight:normal;font-stretch:normal;font-size:52.6053px;font-family:sans-serif;-inkscape-font-specification:'sans-serif, Normal';font-variant-ligatures:normal;font-variant-caps:normal;font-variant-numeric:normal;font-variant-east-asian:normal;stroke-width:1.09594">Maus Ao Alto</tspan></text>
    <path
       d="m 140.2988,43.6804 v 0 c 1.17538,0 2.2728,0.329318 3.19197,0.893869 v -1.484553 c 0,-1.510681 0.65731,-2.885457 1.72132,-3.883867 1.05841,-0.993181 2.52347,-1.615227 4.13895,-1.615227 v 0 c 1.24227,0 2.39536,0.365909 3.34795,0.993182 v -1.197049 c 0,-1.510682 0.65736,-2.885455 1.72134,-3.883867 1.05841,-0.987954 2.52346,-1.604773 4.13339,-1.604773 v 0 c 1.60991,0 3.07498,0.616819 4.13895,1.61523 1.05842,0.993181 1.72133,2.367957 1.72133,3.883868 v 1.212727 c 0.93589,-0.601136 2.0667,-0.951364 3.28667,-0.951364 v 0 c 1.60989,0 3.07498,0.61682 4.13896,1.615228 1.05841,0.993184 1.72134,2.373185 1.72134,3.883866 v 26.120696 c 0.0724,0.44958 0.11138,0.909561 0.11138,1.380019 v 1.536822 l 0.14496,-0.125325 c 1.00831,-0.888632 1.99431,-1.813859 2.36196,-2.164107 2.49564,-2.347028 5.18625,-2.843627 7.31979,-2.21113 0.96373,0.287514 1.79931,0.799779 2.45666,1.479325 0.65175,0.674306 1.13082,1.510681 1.37036,2.451573 0.56265,2.221603 -0.20054,5.018186 -3.14182,7.48547 l -0.05,0.04712 v 0 l -0.009,0.0096 -12.87928,12.20047 v 0.005 c -0.0276,0.02609 -0.0611,0.0574 -0.0947,0.0835 -1.88285,1.698871 -3.72675,2.859299 -5.73217,3.606821 -2.03882,0.76318 -4.18908,1.076809 -6.65129,1.076809 h -8.33366 c -4.43421,1.01e-4 -8.42834,-1.70398 -11.3139,-4.443089 -2.89674,-2.765224 -4.67933,-6.565435 -4.67933,-10.742044 V 70.64672 c 0,-0.360675 0.0229,-0.716137 0.0611,-1.066361 -0.0389,-0.120073 -0.0611,-0.25092 -0.0558,-0.381582 V 49.178153 c 0,-1.510674 0.65732,-2.885457 1.7213,-3.88386 1.05842,-0.998402 2.52349,-1.615225 4.1334,-1.615225 z m 30.98378,31.891629 c -2.27839,-0.820682 -4.35066,-1.22319 -6.17782,-1.249334 -1.91072,-0.02606 -3.54291,0.355463 -4.84087,1.087292 -1.25899,0.705662 -2.21711,1.766814 -2.82432,3.11545 -0.47348,1.050698 -0.72973,2.273867 -0.75201,3.648644 l -2.65162,-0.03133 c 0.0279,-1.714553 0.35093,-3.256587 0.94699,-4.584346 0.82447,-1.845214 2.15584,-3.298396 3.91615,-4.286358 1.71577,-0.967034 3.82143,-1.468871 6.23353,-1.437492 1.79931,0.02606 3.76574,0.344988 5.86587,0.993198 v -2.174554 c 0,-0.266611 -0.0178,-0.533197 -0.05,-0.794565 -0.0558,-0.115047 -0.0892,-0.235112 -0.10584,-0.365917 -0.35095,-1.500203 -1.24225,-2.822723 -2.47893,-3.774066 -1.23667,-0.946143 -2.81315,-1.521161 -4.52333,-1.521161 h -0.66848 c -0.0178,0 -0.0279,0 -0.0447,0 -0.0177,0 -0.0276,0 -0.0447,0 h -9.05228 c -0.0276,0 -0.05,0 -0.0779,0 -0.0279,0 -0.05,0 -0.0779,0 h -9.05224 c -0.13912,0 -0.27852,-0.02106 -0.40664,-0.06284 h -0.33423 c -1.70462,0 -3.26999,0.56455 -4.49553,1.500257 -0.60716,0.465222 -1.13081,1.014081 -1.55418,1.636127 -0.59606,0.993177 -0.9303,2.148393 -0.9303,3.376822 v 10.308198 c 0,3.502269 1.48738,6.685688 3.91056,8.980461 2.40094,2.279082 5.72104,3.690462 9.41995,3.690462 h 8.33364 c 2.15026,0 3.98855,-0.261382 5.67647,-0.893882 1.67117,-0.622041 3.23654,-1.620459 4.86313,-3.089299 0.0178,-0.0168 0.0335,-0.0313 0.05,-0.0471 v 0 l 0.0178,-0.0167 12.86255,-12.184792 c 0.0389,-0.04185 0.0835,-0.08898 0.13375,-0.125561 l 0.88572,0.935678 -0.88016,-0.930442 c 2.13353,-1.77205 2.72402,-3.659098 2.35639,-5.091374 -0.13375,-0.522743 -0.38997,-0.982748 -0.74649,-1.348661 -0.35094,-0.365892 -0.79099,-0.637715 -1.29239,-0.784066 -1.26452,-0.376367 -2.94128,0.0047 -4.63472,1.594318 -0.38995,0.365916 -1.42052,1.33295 -2.42324,2.221606 -0.94701,0.831111 -1.92185,1.630889 -2.56247,1.970685 -0.21172,0.130593 -0.46237,0.20904 -0.73532,0.20904 -0.42894,0.0047 -0.81333,-0.18297 -1.05288,-0.475671 z m -25.1235,-14.139791 h 6.3895 V 43.094943 c 0,-0.820681 -0.36209,-1.573409 -0.94143,-2.117045 -0.57934,-0.543638 -1.37595,-0.883412 -2.25611,-0.883412 v 0 c -0.87458,0 -1.67673,0.339774 -2.25611,0.883412 -0.57935,0.543636 -0.94143,1.291137 -0.94143,2.117045 v 6.084542 12.252753 z m 9.20268,0 h 6.3895 V 37.397213 c 0,-0.820683 -0.3621,-1.573411 -0.94144,-2.117051 -0.57936,-0.543635 -1.37594,-0.883408 -2.2561,-0.883408 v 0 c -0.87461,0 -1.67679,0.339773 -2.2561,0.883408 -0.57934,0.54364 -0.94144,1.291139 -0.94144,2.117051 v 24.035025 z m 9.14137,0.02106 c 2.43992,0.15154 4.64588,1.149996 6.27809,2.686826 0.0389,0.03655 0.0724,0.07309 0.11139,0.104523 V 43.152565 c 0,-0.820681 -0.36207,-1.573409 -0.94144,-2.117045 -0.57935,-0.543638 -1.37594,-0.878182 -2.2561,-0.878182 v 0 c -0.87458,0 -1.67675,0.334544 -2.2561,0.878182 -0.57934,0.543636 -0.94144,1.291137 -0.94144,2.117045 v 18.300699 z m -27.39633,2.817514 c 0.05,-0.04702 0.0947,-0.09938 0.14496,-0.146399 1.60993,-1.542045 3.78804,-2.540466 6.23909,-2.676372 V 49.17959 c 0,-0.82067 -0.35654,-1.573399 -0.93589,-2.117041 -0.57931,-0.543625 -1.37592,-0.883399 -2.25608,-0.883399 v 0 c -0.88015,0 -1.67673,0.339774 -2.2561,0.883399 -0.57935,0.543642 -0.93586,1.291135 -0.93586,2.117041 z"
       id="path421-3-6-3"
       style="display:inline;stroke-width:0.53962"
       inkscape:export-xdpi="96"
       inkscape:export-ydpi="96" />
  </g>
</svg>
